<?xml version="1.0" encoding="UTF-8"?>
<svg id="_レイヤー_1" data-name="レイヤー_1" xmlns="http://www.w3.org/2000/svg" version="1.1" viewBox="0 0 435.03 277.41">
  <!-- Generator: Adobe Illustrator 30.2.1, SVG Export Plug-In . SVG Version: 2.1.1 Build 1)  -->
  <polygon points="270.39 .45 418.2 .69 229.29 135.17 .04 135.28 .01 .26 102.25 .11 102.73 120.44 270.39 .45"/>
  <path d="M435.03,276.26l-91.09-60.06,91.09-64.39v-34.2l-115.11,83.14-33.07-20.94,148.18-104.67v-32.39l-171.78,121.4-33.73-21.9-229.51-.08.09,135.25,91.47-.02c6.48-.47,11.21-4.49,10.97-11.2l-.09-106.74,88.12,55.64-85.68,61.29c16.33,1.52,29.52,1.1,44.26.84l65.9-46.84,33.11,20.78-34.68,25.2c14.86,1.51,28.34,1.12,43.65.93l15.59-10.55,18.09,10.76,144.21-.65v-.62Z"/>
</svg>