<?xml version="1.0" encoding="UTF-8"?>
<svg id="_レイヤー_1" data-name="レイヤー_1" xmlns="http://www.w3.org/2000/svg" version="1.1" viewBox="0 0 1920 277.41">
  <!-- Generator: Adobe Illustrator 30.2.1, SVG Export Plug-In . SVG Version: 2.1.1 Build 1)  -->
  <polygon points="270.39 .45 418.2 .69 229.29 135.17 .04 135.28 .01 .26 102.25 .11 102.73 120.44 270.39 .45"/>
  <path d="M800.43,135.14l-126.74-.19,95.27-59.69-201.14-.15.02-74.92h333.9s.26,64.56.26,64.56c.02,3.84-2.87,9.02-6.28,11.14l-95.3,59.24Z"/>
  <path d="M902.04,265.7c.02,4.58-3.29,11.6-9.12,11.6l-324.98.09-.24-62.72c.41-6.29,3.3-11.37,8.66-14.65l88.59-57.82,126.48.33-91.14,59.91,201.51.05.24,63.2Z"/>
  <path d="M1361.36,147.89c-12.36-9.5-32.19-5.61-42.17,5.14-6.73,7.25-10.26,16.8-11.66,26.52l-13.87,96.39-54.4-.25,24.66-176.27,52.24-.11-2.84,24.56c16.54-23.22,43.05-31.95,70.87-28.05,21.58,3.02,37.88,16.9,40.37,39.53,1.24,11.23,1.38,23.42-.25,35.3l-14.45,105.1-54.47.12,13.59-100.73c1.2-8.89.35-21.11-7.63-27.24Z"/>
  <path d="M1672.97,147.89c-12.39-9.5-32.16-5.6-42.2,5.12-6.74,7.2-10.26,16.78-11.66,26.51l-13.88,96.4-54.4-.25,24.72-176.27,52.22-.11-2.84,24.54c16.53-23.19,43.06-31.95,70.86-28.03,21.08,2.97,37.17,16.2,40.19,38.2,1.56,11.36,1.11,23.15.18,35.18l-14.77,106.53-54.41.13,13.59-100.86c1.2-8.89.32-21.02-7.6-27.1Z"/>
  <polygon points="1033.52 135.21 918.09 135.26 918.09 .19 1033.47 .2 1033.52 135.21"/>
  <path d="M1033.55,265.46c.4,6.52-4.04,11.91-10.23,11.91l-105.23.05v-135.22s115.38-.02,115.38-.02l.08,123.29Z"/>
  <polygon points="1474.83 275.39 1420.2 275.8 1458.8 1.15 1513.36 1.15 1474.83 275.39"/>
  <polygon points="1540.5 275.4 1485.85 275.73 1510.56 99.38 1565.13 99.38 1540.5 275.4"/>
  <path d="M1537.36,41.23c15.91-2.25,28.93,9.23,31.05,23.09,2.35,15.3-8.5,29.06-23.37,31.27-14.61,2.18-28.25-7.85-30.99-22.21-2.79-14.64,6.91-29.84,23.3-32.16Z"/>
  <path d="M551.64.36l-56.12-.36-232.28,164.15-33.73-21.9-229.51-.08.09,135.25,91.47-.02c6.48-.47,11.21-4.49,10.97-11.2l-.09-106.74,88.12,55.64-85.68,61.29c16.33,1.52,29.52,1.1,44.26.84l65.9-46.84,33.11,20.78-34.68,25.2c14.86,1.51,28.34,1.12,43.65.93l15.59-10.55,18.09,10.76,145.12-.65v.56s104.55-.05,104.55-.05c6.63,0,11.39-4.55,11.15-11.31V.36ZM286.85,179.81l148.54-104.93.6,42.03-116.07,83.83-33.07-20.94ZM435.94,276.87l-92.01-60.66,92.09-65.1-.09,125.76Z"/>
  <path d="M1917.9,148.25c-5.64-27.26-25-47.42-52.94-51.79-28.08-4.39-56.45,1.52-80.38,16.99-34.24,22.13-53.03,61.26-47.35,101.61,3.97,28.13,22.78,50,49.6,59.28,40.54,14.03,86.13,2.38,114.92-29.07l-34.18-27.55c-11.66,12.6-23.41,20.77-39.97,21.15-21.55,1.51-38.06-13.73-38.06-34.18l126.2-.04c4.14-19.23,6.01-37.76,2.15-56.4ZM1866.47,167.65l-71.84-.1c4.67-23.96,30.54-38.72,54.15-31.71,13.62,4.05,20.44,18.54,17.68,31.8Z"/>
  <path d="M1246.56,175.94c-5.49-50.46-50.88-88.77-103.46-83.18-53.07,5.64-89.3,53.08-83.58,103.7,5.78,51.12,52.04,87.96,102.91,82.79,51.87-5.27,89.75-51.69,84.13-103.31ZM1162.38,227.96c-22.49,4.97-45.5-8.54-51.27-31.53-5.61-22.35,7.49-46.62,32.06-52.3,24.2-5.59,46.63,9.51,51.88,32.07,5.42,23.26-8.99,46.52-32.67,51.76Z"/>
</svg>